<svg width="36" height="36" viewBox="0 0 36 36" fill="none" xmlns="http://www.w3.org/2000/svg">
<path d="M18 14.1C18 10.7397 18 9.05953 18.654 7.77606C19.2292 6.64708 20.1471 5.7292 21.2761 5.15396C22.5595 4.5 24.2397 4.5 27.6 4.5H28.2C29.8802 4.5 30.7202 4.5 31.362 4.82698C31.9265 5.1146 32.3854 5.57354 32.673 6.13803C33 6.77976 33 7.61984 33 9.3V22.2C33 23.8802 33 24.7202 32.673 25.362C32.3854 25.9265 31.9265 26.3854 31.362 26.673C30.7202 27 29.8802 27 28.2 27H26.1378C24.2593 27 23.3201 27 22.4676 27.2589C21.7129 27.4881 21.0107 27.8639 20.4013 28.3647C19.713 28.9305 19.192 29.7119 18.1501 31.2749L18 31.5L17.8499 31.2749C16.808 29.7119 16.287 28.9305 15.5987 28.3647C14.9893 27.8639 14.2871 27.4881 13.5324 27.2589C12.6799 27 11.7407 27 9.86224 27H7.8C6.11984 27 5.27976 27 4.63803 26.673C4.07354 26.3854 3.6146 25.9265 3.32698 25.362C3 24.7202 3 23.8802 3 22.2V9.3C3 7.61984 3 6.77976 3.32698 6.13803C3.6146 5.57354 4.07354 5.1146 4.63803 4.82698C5.27976 4.5 6.11984 4.5 7.8 4.5H8.4C11.7603 4.5 13.4405 4.5 14.7239 5.15396C15.8529 5.7292 16.7708 6.64708 17.346 7.77606C18 9.05953 18 10.7397 18 14.1ZM18 31.5V14.1" stroke="#E5BDAA" stroke-width="3" stroke-linecap="round" stroke-linejoin="round"/>
</svg>
