<svg width="36" height="36" viewBox="0 0 36 36" fill="none" xmlns="http://www.w3.org/2000/svg">
<rect x="1" y="1" width="34" height="34" rx="17" stroke="#B1D3C2" stroke-width="2"/>
<path d="M18.0005 21C19.6573 21 21.0005 19.6569 21.0005 18C21.0005 16.3431 19.6573 15 18.0005 15C16.3436 15 15.0005 16.3431 15.0005 18C15.0005 19.6569 16.3436 21 18.0005 21Z" stroke="#2D2C2A" stroke-width="2" stroke-linecap="round" stroke-linejoin="round"/>
<path d="M15.2896 25.3711L15.874 26.6856C16.0478 27.0768 16.3313 27.4093 16.6902 27.6426C17.0492 27.8759 17.4681 28.0001 17.8962 28C18.3244 28.0001 18.7433 27.8759 19.1022 27.6426C19.4612 27.4093 19.7447 27.0768 19.9185 26.6856L20.5029 25.3711C20.711 24.9047 21.0609 24.5159 21.5029 24.26C21.9477 24.0034 22.4622 23.8941 22.9729 23.9478L24.4029 24.1C24.8286 24.145 25.2582 24.0656 25.6396 23.8713C26.021 23.6771 26.3379 23.3763 26.5518 23.0056C26.766 22.635 26.868 22.2103 26.8455 21.7829C26.823 21.3555 26.677 20.9438 26.4251 20.5978L25.5785 19.4344C25.277 19.0171 25.1159 18.5148 25.1185 18C25.1184 17.4866 25.281 16.9864 25.5829 16.5711L26.4296 15.4078C26.6814 15.0618 26.8275 14.6501 26.85 14.2227C26.8725 13.7953 26.7704 13.3705 26.5562 13C26.3423 12.6292 26.0255 12.3285 25.644 12.1342C25.2626 11.94 24.833 11.8605 24.4074 11.9056L22.9774 12.0578C22.4667 12.1114 21.9521 12.0021 21.5074 11.7456C21.0645 11.4883 20.7144 11.0974 20.5074 10.6289L19.9185 9.31444C19.7447 8.92317 19.4612 8.59072 19.1022 8.3574C18.7433 8.12408 18.3244 7.99993 17.8962 8C17.4681 7.99993 17.0492 8.12408 16.6902 8.3574C16.3313 8.59072 16.0478 8.92317 15.874 9.31444L15.2896 10.6289C15.0825 11.0974 14.7324 11.4883 14.2896 11.7456C13.8448 12.0021 13.3302 12.1114 12.8196 12.0578L11.3851 11.9056C10.9595 11.8605 10.5299 11.94 10.1484 12.1342C9.76702 12.3285 9.45014 12.6292 9.23624 13C9.02206 13.3705 8.92002 13.7953 8.94251 14.2227C8.96499 14.6501 9.11103 15.0618 9.36291 15.4078L10.2096 16.5711C10.5115 16.9864 10.6741 17.4866 10.674 18C10.6741 18.5134 10.5115 19.0137 10.2096 19.4289L9.36291 20.5922C9.11103 20.9382 8.96499 21.3499 8.94251 21.7773C8.92002 22.2047 9.02206 22.6295 9.23624 23C9.45036 23.3706 9.76727 23.6712 10.1486 23.8654C10.53 24.0596 10.9595 24.1392 11.3851 24.0944L12.8151 23.9422C13.3258 23.8886 13.8403 23.9979 14.2851 24.2544C14.7297 24.511 15.0813 24.902 15.2896 25.3711Z" stroke="#2D2C2A" stroke-width="2" stroke-linecap="round" stroke-linejoin="round"/>
</svg>
