<svg width="36" height="36" viewBox="0 0 36 36" fill="none" xmlns="http://www.w3.org/2000/svg">
<path d="M18.0003 3L25.232 17.4633C25.3304 17.6601 25.3796 17.7585 25.399 17.8617C25.4161 17.9531 25.4161 18.0469 25.399 18.1383C25.3796 18.2415 25.3304 18.3399 25.232 18.5367L18.0003 33M25.5003 3L32.732 17.4633C32.8304 17.6601 32.8796 17.7585 32.899 17.8617C32.9161 17.9531 32.9161 18.0469 32.899 18.1383C32.8796 18.2415 32.8304 18.3399 32.732 18.5367L25.5003 33M10.5003 3L3.26867 17.4633C3.17028 17.6601 3.12109 17.7585 3.10173 17.8617C3.08458 17.9531 3.08458 18.0469 3.10173 18.1383C3.12109 18.2415 3.17028 18.3399 3.26867 18.5367L10.5003 33L17.732 18.5367C17.8304 18.3399 17.8796 18.2415 17.899 18.1383C17.9161 18.0469 17.9161 17.9531 17.899 17.8617C17.8796 17.7585 17.8304 17.6601 17.732 17.4633L10.5003 3Z" stroke="#B8A4DA" stroke-width="3" stroke-linecap="round" stroke-linejoin="round"/>
</svg>
