<?xml version="1.0" encoding="utf-8"?><svg version="1.1" id="Layer_1" xmlns="http://www.w3.org/2000/svg" xmlns:xlink="http://www.w3.org/1999/xlink" x="0px" y="0px" viewBox="0 0 90.56 122.88" style="enable-background:new 0 0 90.56 122.88" xml:space="preserve"><g><path d="M70.08,91.11h18.67c0.99,0,1.81,0.81,1.81,1.81v28.15c0,0.99-0.81,1.81-1.81,1.81H70.08c-0.99,0-1.81-0.81-1.81-1.81V92.92 C68.27,91.93,69.09,91.11,70.08,91.11L70.08,91.11z M15.3,8.37c22.01-15.22,23.66,14.9,45.27-3.9v30.69 C39.96,53.7,35.51,23.74,15.3,38.97V8.37L15.3,8.37z M9.87,0c2.32,0,4.2,1.88,4.2,4.2c0,1.54-0.83,2.89-2.06,3.62l0.2,0v37.21h8.28 c0.99,0,1.81,0.81,1.81,1.81v74.24c0,0.99-0.81,1.81-1.81,1.81H1.81c-0.99,0-1.81-0.81-1.81-1.81V46.84c0-0.99,0.81-1.81,1.81-1.81 v0h5.73V7.82h0.2C6.5,7.09,5.67,5.74,5.67,4.2C5.67,1.88,7.55,0,9.87,0L9.87,0z M35.94,66.71h18.67c0.99,0,1.81,0.81,1.81,1.81 v52.56c0,0.99-0.81,1.81-1.81,1.81H35.94c-0.99,0-1.81-0.81-1.81-1.81V68.52C34.14,67.52,34.95,66.71,35.94,66.71L35.94,66.71z"/></g></svg>