<svg width="36" height="36" viewBox="0 0 36 36" fill="none" xmlns="http://www.w3.org/2000/svg">
<path d="M10.5 4.5V31.5M6 4.5H15C15.8284 4.5 16.5 5.17157 16.5 6V30C16.5 30.8284 15.8284 31.5 15 31.5H6C5.17157 31.5 4.5 30.8284 4.5 30V6C4.5 5.17157 5.17157 4.5 6 4.5ZM30.6 28.35C30.9 29.1 30.45 30 29.7 30.3L26.85 31.35C26.1 31.65 25.2 31.2 24.9 30.45L16.65 7.65C16.35 6.9 16.8 6 17.55 5.7L20.4 4.65C21.15 4.35 22.05 4.8 22.35 5.55L30.6 28.35Z" stroke="#ADC5DD" stroke-width="3" stroke-linecap="round" stroke-linejoin="round"/>
</svg>
