<svg xmlns="http://www.w3.org/2000/svg" xmlns:xlink="http://www.w3.org/1999/xlink" version="1.1" width="256" height="256" viewBox="0 0 256 256" xml:space="preserve">
<g style="stroke: none; stroke-width: 0; stroke-dasharray: none; stroke-linecap: butt; stroke-linejoin: miter; stroke-miterlimit: 10; fill: none; fill-rule: nonzero; opacity: 1;" transform="translate(1.4065934065934016 1.4065934065934016) scale(2.81 2.81)">
	<path d="M 50.347 76.891 c -0.128 0 -0.257 -0.024 -0.382 -0.076 c -0.511 -0.21 -0.753 -0.795 -0.542 -1.306 l 22.574 -54.653 c 0.212 -0.512 0.798 -0.752 1.306 -0.542 c 0.511 0.211 0.753 0.795 0.542 1.306 L 51.271 76.272 C 51.111 76.658 50.739 76.891 50.347 76.891 z" style="stroke: none; stroke-width: 1; stroke-dasharray: none; stroke-linecap: butt; stroke-linejoin: miter; stroke-miterlimit: 10; fill: rgb(201,207,212); fill-rule: nonzero; opacity: 1;" transform=" matrix(1 0 0 1 0 0) " stroke-linecap="round"/>
	<path d="M 50.347 76.891 c -0.116 0 -0.232 -0.021 -0.345 -0.062 c -0.322 -0.118 -0.562 -0.394 -0.633 -0.729 l -6.921 -32.296 L 8.965 50.731 c -0.373 0.076 -0.761 -0.066 -0.995 -0.37 s -0.273 -0.714 -0.102 -1.057 l 17.819 -35.637 c 0.006 -0.013 0.013 -0.025 0.02 -0.038 c 0.12 -0.221 0.313 -0.379 0.534 -0.459 c 0.032 -0.012 0.065 -0.022 0.099 -0.031 h 0 c 0 0 0.001 0 0.001 0 c 0.134 -0.033 0.276 -0.04 0.417 -0.015 l 46.311 7.125 c 0.241 0.037 0.469 0.161 0.632 0.364 c 0.025 0.031 0.048 0.064 0.069 0.099 c 0 0 0 0 0.001 0.001 l 0 0 c 0.056 0.091 0.096 0.188 0.12 0.287 l 8.311 30.869 c 0.104 0.391 -0.035 0.806 -0.356 1.053 L 50.956 76.684 C 50.779 76.819 50.564 76.891 50.347 76.891 z M 44.333 43.054 l 6.66 31.078 l 29.105 -22.388 l -7.767 -28.85 L 44.333 43.054 z M 26.652 16.21 L 10.579 48.355 l 31.074 -6.429 L 26.652 16.21 z M 28.505 15.417 l 15.022 25.753 l 26.826 -19.315 L 28.505 15.417 z" style="stroke: none; stroke-width: 1; stroke-dasharray: none; stroke-linecap: butt; stroke-linejoin: miter; stroke-miterlimit: 10; fill: rgb(201,207,212); fill-rule: nonzero; opacity: 1;" transform=" matrix(1 0 0 1 0 0) " stroke-linecap="round"/>
	<path d="M 50.346 76.891 c -0.182 0 -0.366 -0.05 -0.531 -0.153 L 8.23 50.599 c -0.468 -0.294 -0.608 -0.911 -0.314 -1.379 c 0.294 -0.466 0.912 -0.606 1.379 -0.314 l 41.584 26.139 c 0.468 0.294 0.608 0.911 0.314 1.379 C 51.003 76.725 50.678 76.891 50.346 76.891 z" style="stroke: none; stroke-width: 1; stroke-dasharray: none; stroke-linecap: butt; stroke-linejoin: miter; stroke-miterlimit: 10; fill: rgb(201,207,212); fill-rule: nonzero; opacity: 1;" transform=" matrix(1 0 0 1 0 0) " stroke-linecap="round"/>
	<circle cx="50.342999999999996" cy="75.893" r="8.763" style="stroke: none; stroke-width: 1; stroke-dasharray: none; stroke-linecap: butt; stroke-linejoin: miter; stroke-miterlimit: 10; fill: rgb(241,123,123); fill-rule: nonzero; opacity: 1;" transform="  matrix(1 0 0 1 0 0) "/>
	<circle cx="26.583" cy="14.113" r="8.763" style="stroke: none; stroke-width: 1; stroke-dasharray: none; stroke-linecap: butt; stroke-linejoin: miter; stroke-miterlimit: 10; fill: rgb(247,191,80); fill-rule: nonzero; opacity: 1;" transform="  matrix(1 0 0 1 0 0) "/>
	<circle cx="8.763" cy="49.753" r="8.763" style="stroke: none; stroke-width: 1; stroke-dasharray: none; stroke-linecap: butt; stroke-linejoin: miter; stroke-miterlimit: 10; fill: rgb(126,198,197); fill-rule: nonzero; opacity: 1;" transform="  matrix(1 0 0 1 0 0) "/>
	<circle cx="72.923" cy="21.233" r="8.763" style="stroke: none; stroke-width: 1; stroke-dasharray: none; stroke-linecap: butt; stroke-linejoin: miter; stroke-miterlimit: 10; fill: rgb(241,123,123); fill-rule: nonzero; opacity: 1;" transform="  matrix(1 0 0 1 0 0) "/>
	<circle cx="81.233" cy="52.132999999999996" r="8.763" style="stroke: none; stroke-width: 1; stroke-dasharray: none; stroke-linecap: butt; stroke-linejoin: miter; stroke-miterlimit: 10; fill: rgb(126,198,197); fill-rule: nonzero; opacity: 1;" transform="  matrix(1 0 0 1 0 0) "/>
	<circle cx="43.223" cy="42.623" r="8.763" style="stroke: none; stroke-width: 1; stroke-dasharray: none; stroke-linecap: butt; stroke-linejoin: miter; stroke-miterlimit: 10; fill: rgb(247,191,80); fill-rule: nonzero; opacity: 1;" transform="  matrix(1 0 0 1 0 0) "/>
</g>
</svg>