<svg width="36" height="36" viewBox="0 0 36 36" fill="none" xmlns="http://www.w3.org/2000/svg">
<path d="M18 33C26.2843 33 33 26.2843 33 18C33 9.71573 26.2843 3 18 3C9.71573 3 3 9.71573 3 18C3 26.2843 9.71573 33 18 33Z" stroke="#B4D2AF" stroke-width="3" stroke-linecap="round" stroke-linejoin="round"/>
<path d="M14.25 13.448C14.25 12.7321 14.25 12.3741 14.3996 12.1743C14.53 12.0001 14.7296 11.8912 14.9466 11.8757C15.1956 11.8579 15.4967 12.0514 16.0989 12.4386L23.1798 16.9906C23.7024 17.3265 23.9637 17.4945 24.0539 17.7081C24.1328 17.8947 24.1328 18.1053 24.0539 18.2919C23.9637 18.5055 23.7024 18.6735 23.1798 19.0094L16.0989 23.5614C15.4967 23.9486 15.1956 24.1421 14.9466 24.1243C14.7296 24.1088 14.53 23.9999 14.3996 23.8257C14.25 23.6259 14.25 23.2679 14.25 22.552V13.448Z" stroke="#B4D2AF" stroke-width="3" stroke-linecap="round" stroke-linejoin="round"/>
</svg>
