<svg width="36" height="36" viewBox="0 0 36 36" fill="none" xmlns="http://www.w3.org/2000/svg">
<path d="M6.75 33V25.5M6.75 10.5V3M3 6.75H10.5M3 29.25H10.5M19.5 4.5L16.8987 11.2633C16.4757 12.3631 16.2642 12.9131 15.9353 13.3756C15.6438 13.7856 15.2856 14.1438 14.8756 14.4353C14.4131 14.7642 13.8631 14.9757 12.7633 15.3987L6 18L12.7633 20.6013C13.8631 21.0243 14.4131 21.2358 14.8756 21.5647C15.2856 21.8562 15.6438 22.2144 15.9353 22.6244C16.2642 23.0869 16.4757 23.6369 16.8987 24.7367L19.5 31.5L22.1013 24.7367C22.5243 23.6369 22.7358 23.0869 23.0647 22.6244C23.3562 22.2144 23.7144 21.8562 24.1244 21.5647C24.5869 21.2358 25.1369 21.0243 26.2367 20.6013L33 18L26.2367 15.3987C25.1369 14.9757 24.5869 14.7642 24.1244 14.4353C23.7144 14.1438 23.3562 13.7856 23.0647 13.3756C22.7358 12.9131 22.5243 12.3631 22.1013 11.2633L19.5 4.5Z" stroke="#B4D2AF" stroke-width="3" stroke-linecap="round" stroke-linejoin="round"/>
</svg>
