<svg width="73" height="68" viewBox="0 0 73 68" fill="none" xmlns="http://www.w3.org/2000/svg">
<path d="M73 45.1537C70.3663 39.3967 64.4512 38.5571 60.75 36.1585C58.9769 35.0097 58.26 32.7049 57.9783 30.7779C56.2334 30.9585 53.3293 30.9836 51.9421 27.4796C50.852 24.7242 51.3041 20.1566 47.6522 16.2874C44.3326 12.7693 40.2484 11.6092 36.5007 11.8709C41.0934 14.9216 39.2822 19.5213 35.9486 19.5213C31.3052 19.5213 30.0081 13.9658 23.2127 13.9658C21.6579 13.9658 20.289 14.4486 19.4341 15.0097C23.2395 15.4869 24.1493 18.5865 25.3394 21.3937C26.2844 23.6243 27.9744 24.9229 30.4489 25.603C30.0025 25.8591 28.9335 26.1726 27.5533 26.1726C24.5521 26.1726 22.4621 24.6039 20.3129 22.4026C18.4215 20.4673 16.3117 18.6327 12.7753 18.6327C11.0346 18.6327 9.70226 19.1813 9.24172 19.4891C11.1839 19.7928 14.0513 20.9431 14.0513 22.9834C14.0513 24.7284 12.1092 25.3959 10.5177 23.7265C8.74597 21.8667 6.25738 20.4617 3.41107 20.4617C2.00552 20.4617 0.598557 20.9067 0 21.4847C3.37445 21.8723 5.37293 24.0245 7.46154 28.823C8.64034 31.5336 10.3191 34.0945 14.547 34.142C16.4709 34.1644 19.2031 33.2562 20.8072 34.7858C22.3241 36.2341 21.8156 38.1317 22.51 39.671C23.3832 41.6049 25.1943 42.6027 28.735 42.786C25.7971 45.2279 18.7764 43.7628 16.385 41.2677C16.699 47.5145 21.6579 53.119 31.5038 50.484C33.215 50.0264 34.436 50.2853 35.0937 52.0051C35.9979 54.3673 38.1386 54.7591 40.1625 54.51C44.7904 53.9404 47.5367 54.8668 50.1999 58.028C50.7816 52.7972 47.0184 49.7241 44.6538 48.2548C42.4018 46.8554 42.1821 45.4 42.1539 44.2735C43.7834 46.1263 45.9072 46.91 48.1169 47.2206C51.9364 47.7552 54.6729 48.8131 56.1207 50.8478C56.5432 45.0978 50.4675 43.7977 49.7225 41.3782C51.6336 42.6181 53.0434 43.0673 55.0348 42.9175C57.6896 42.7174 60.919 40.6463 63.302 44.7003C66.3426 42.737 70.3255 43.4367 73 45.1551M33.0784 68H39.9216V61.2004H33.0784V68ZM33.0784 6.79958H39.9216V0H33.0784V6.79958ZM39.923 37.3998H33.0798V30.6002H39.923V37.3998Z" fill="#2D2C2A"/>
</svg>
