<svg width="36" height="36" viewBox="0 0 36 36" fill="none" xmlns="http://www.w3.org/2000/svg">
<path d="M3 9C3.9 9.75 4.8 10.5 6.75 10.5C10.5 10.5 10.5 7.5 14.25 7.5C16.2 7.5 17.1 8.25 18 9C18.9 9.75 19.8 10.5 21.75 10.5C25.5 10.5 25.5 7.5 29.25 7.5C31.2 7.5 32.1 8.25 33 9M3 27C3.9 27.75 4.8 28.5 6.75 28.5C10.5 28.5 10.5 25.5 14.25 25.5C16.2 25.5 17.1 26.25 18 27C18.9 27.75 19.8 28.5 21.75 28.5C25.5 28.5 25.5 25.5 29.25 25.5C31.2 25.5 32.1 26.25 33 27M3 18C3.9 18.75 4.8 19.5 6.75 19.5C10.5 19.5 10.5 16.5 14.25 16.5C16.2 16.5 17.1 17.25 18 18C18.9 18.75 19.8 19.5 21.75 19.5C25.5 19.5 25.5 16.5 29.25 16.5C31.2 16.5 32.1 17.25 33 18" stroke="#ADC5DD" stroke-width="3" stroke-linecap="round" stroke-linejoin="round"/>
</svg>
