<?xml version="1.0" encoding="utf-8"?><svg version="1.1" id="Layer_1" xmlns="http://www.w3.org/2000/svg" xmlns:xlink="http://www.w3.org/1999/xlink" x="0px" y="0px" viewBox="0 0 73.45 122.88" style="enable-background:new 0 0 73.45 122.88" xml:space="preserve"><style type="text/css">.st0{fill-rule:evenodd;clip-rule:evenodd;}</style><g><path class="st0" d="M46.07,50.64c2.2,0.58,4.32,1.36,6.34,2.31L55.59,3h6.58l-5.35,52.42c10.01,6.56,16.63,17.88,16.63,30.74 c0,20.28-16.44,36.72-36.72,36.72C16.44,122.88,0,106.44,0,86.16C0,73.65,6.26,62.6,15.81,55.97L11.27,3h6.58l2.36,50.35 c2.16-1.09,4.43-1.97,6.81-2.61L24.44,0h24.58L46.07,50.64L46.07,50.64z M32.76,79.96l-8.03-1.43c0.67-2.56,1.94-4.51,3.85-5.88 c1.89-1.36,4.58-2.04,8.05-2.04c3.99,0,6.86,0.74,8.64,2.23c1.77,1.49,2.66,3.36,2.66,5.61c0,1.32-0.36,2.51-1.08,3.58 c-0.72,1.07-1.8,2.01-3.25,2.81c1.18,0.29,2.09,0.63,2.71,1.03c1.02,0.63,1.8,1.45,2.36,2.47c0.56,1.03,0.85,2.24,0.85,3.66 c0,1.78-0.46,3.49-1.4,5.13c-0.93,1.63-2.27,2.89-4.02,3.77c-1.75,0.88-4.05,1.32-6.91,1.32c-2.78,0-4.97-0.33-6.57-0.98 c-1.61-0.66-2.93-1.61-3.97-2.87c-1.03-1.26-1.83-2.85-2.39-4.76l8.5-1.13c0.33,1.72,0.85,2.91,1.55,3.57c0.7,0.66,1.59,1,2.68,1 c1.13,0,2.08-0.42,2.84-1.25c0.75-0.83,1.13-1.94,1.13-3.34c0-1.42-0.36-2.51-1.09-3.3c-0.73-0.78-1.72-1.17-2.96-1.17 c-0.66,0-1.58,0.16-2.74,0.5l0.44-6.07c0.46,0.07,0.83,0.11,1.09,0.11c1.1,0,2.02-0.36,2.75-1.06c0.73-0.7,1.1-1.54,1.1-2.51 c0-0.93-0.28-1.67-0.83-2.22c-0.56-0.56-1.32-0.83-2.28-0.83c-1,0-1.8,0.3-2.43,0.9C33.4,77.4,32.98,78.46,32.76,79.96L32.76,79.96 z M36.72,58.05c15.52,0,28.1,12.58,28.1,28.1s-12.58,28.1-28.1,28.1c-15.52,0-28.1-12.58-28.1-28.1S21.2,58.05,36.72,58.05 L36.72,58.05z"/></g></svg>